<svg width="157" height="24" viewBox="0 0 157 24" fill="none" xmlns="http://www.w3.org/2000/svg">
<path d="M3.2467 19.0289V3.64669H18.6311V12.8756H9.40003V9.80002H15.5534V6.72224H6.32448V15.9534H21.7089V0.568909H0.171143V22.5511H21.7089V19.0289H3.2467Z" fill="white"/>
<path d="M56.8888 18.1555L50.9177 0.611084H46.3088V22.5511H49.6066V9.64886C49.6066 9.14219 49.5933 8.35108 49.5622 7.27331C49.5511 6.72664 49.5377 6.25108 49.5288 5.84664L55.2377 22.5511H58.4911L64.1444 5.85108C64.1444 6.41108 64.137 6.95108 64.1222 7.47108C64.1014 8.48442 64.0918 9.21034 64.0933 9.64886V22.5511H67.3911V0.611084H62.8111L56.8888 18.1555Z" fill="white"/>
<path d="M85.371 14.1089C85.371 15.6066 85.1488 16.8044 84.6821 17.6644C83.831 19.2689 82.2555 20.0466 79.8599 20.0466C77.8799 20.0466 76.5132 19.3289 75.6821 17.8489C75.1199 16.8644 74.8355 15.6022 74.8355 14.1V0.611084H71.3777V12.9C71.3777 15.5666 71.7466 17.6466 72.4732 19.0977C73.8066 21.7644 76.3777 23.12 80.0955 23.12C83.8132 23.12 86.3843 21.7666 87.7332 19.0977C88.4599 17.6466 88.831 15.5622 88.831 12.9V0.611084H85.371V14.1089Z" fill="white"/>
<path d="M103.393 18.1555L97.4268 0.611084H92.8179V22.5511H96.1156V9.64886C96.1156 9.14219 96.1001 8.35108 96.0734 7.27331C96.0556 6.72664 96.0468 6.25108 96.0401 5.84664L101.747 22.5511H105L110.653 5.85108C110.653 6.41108 110.646 6.95108 110.631 7.47108C110.613 8.48442 110.602 9.21108 110.602 9.64886V22.5511H113.9V0.611084H109.32L103.393 18.1555Z" fill="white"/>
<path d="M131.476 10.7222C131.961 10.4439 132.401 10.0924 132.78 9.67997C133.587 8.76886 133.998 7.59108 133.998 6.17997C134.015 5.03138 133.669 3.90667 133.009 2.96664C131.898 1.41108 130.011 0.611084 127.409 0.611084H117.887V22.5511H127.258C130.167 22.5511 132.325 21.6622 133.671 19.9422C134.556 18.832 135.036 17.4531 135.031 16.0333C135.031 14.3244 134.518 12.9622 133.507 11.98C132.909 11.4445 132.221 11.0187 131.476 10.7222ZM130.936 18.1066C130.224 19.0622 129.005 19.5444 127.307 19.5444H121.258V12.5377H126.813C128 12.5377 128.965 12.6844 129.673 12.9822C130.98 13.5066 131.613 14.4644 131.613 15.9133C131.636 16.701 131.402 17.4747 130.947 18.1177M129.107 9.19108C128.458 9.51108 127.527 9.6733 126.336 9.6733H121.269V3.55553H126.222C127.458 3.55553 128.393 3.68664 129.005 3.94442C130.058 4.38886 130.56 5.23331 130.56 6.52886C130.56 7.82442 130.076 8.68664 129.087 9.17775" fill="white"/>
<path d="M148.702 0.611084H145.06L136.798 22.5511H140.338L142.667 16.1377H150.693L152.929 22.5511H156.667L148.702 0.611084ZM149.68 13.2489H143.707L146.751 4.83997L149.68 13.2489Z" fill="white"/>
<path d="M42.3222 22.4445H29.1111V0.666687H42.32V3.67558H32.6666V9.60447H41.7778V12.5845H32.6666V19.42H42.3155L42.3222 22.4445Z" fill="white"/>
</svg>
